<svg width="480" height="368" viewBox="0 0 480 368" fill="none" xmlns="http://www.w3.org/2000/svg">
<path fill-rule="evenodd" clip-rule="evenodd" d="M377.888 96L372.024 98.936C433.608 111.888 480 166.616 480 232C480 306.992 418.992 368 344 368C310.536 368 279.912 355.8 256.192 335.68C228.584 356.48 194.704 368 160 368C71.776 368 0 296.224 0 208C0 119.776 71.776 48 160 48C200.168 48 238.584 62.952 268.152 90.088C271.416 93.072 271.632 98.136 268.64 101.392C265.648 104.648 260.584 104.864 257.344 101.88C230.728 77.456 196.16 64 160 64C80.6 64 16 128.6 16 208C16 287.4 80.6 352 160 352C190.384 352 220.064 342.2 244.528 324.44C239.536 319.072 234.888 313.368 230.808 307.248C210.24 321.92 185.416 330 160 330C92.728 330 37.992 275.272 37.992 208C37.992 140.728 92.72 86 159.992 86C188.008 86 215.368 95.736 237.032 113.4C240.456 116.192 240.976 121.232 238.184 124.656C235.384 128.08 230.352 128.592 226.928 125.8C208.112 110.456 184.344 102 160 102C101.552 102 54 149.552 54 208C54 266.448 101.552 314 160 314C182.608 314 204.656 306.632 222.768 293.304C213.4 274.856 208 254.064 208 232C208 166.616 254.392 111.888 315.984 98.936L310.112 96H304C299.576 96 296 92.416 296 88C296 83.584 299.576 80 304 80H312C312.928 80 313.8 80.304 314.672 80.608L293.704 54.384C289.912 53.216 287.496 49.464 288.16 45.496C287.896 43.608 288.232 41.584 289.344 39.92L313.344 3.8C314.832 1.576 317.328 0 320 0H368C370.672 0 373.168 1.576 374.656 3.8L398.656 40.04C399.16 40.792 399.512 41.616 399.728 42.464C399.733 42.4824 399.74 42.4955 399.747 42.5079C399.752 42.5171 399.757 42.5258 399.76 42.536C399.777 42.6038 399.774 42.6693 399.77 42.7349C399.768 42.7933 399.765 42.8518 399.776 42.912C399.936 43.72 399.976 44.528 399.888 45.336C399.858 45.6495 399.786 45.9352 399.712 46.232L399.696 46.296C399.552 46.904 399.344 47.472 399.064 48.04C398.904 48.36 398.752 48.656 398.552 48.944C398.497 49.0209 398.457 49.1046 398.417 49.1888C398.37 49.2885 398.322 49.389 398.248 49.48L373.328 80.632L373.388 80.6104C374.24 80.3054 375.093 80 376 80H384C388.424 80 392 83.584 392 88C392 92.416 388.424 96 384 96H377.888ZM324.28 16L307.872 40.792L343.808 48.16L379.048 39.232L363.72 16H324.28ZM345.248 90.12L370.952 57.992L345.936 64.256C345.304 64.416 344.648 64.496 344 64.496C343.48 64.496 342.944 64.44 342.432 64.336L318.248 59.496L342.752 90.12C343.528 91.112 344.464 91.112 345.248 90.12ZM224 232C224 298.168 277.832 352 344 352C410.168 352 464 298.168 464 232C464 165.832 410.168 112 344 112C277.832 112 224 165.832 224 232ZM240 232C240 174.656 286.656 128 344 128C401.344 128 448 174.656 448 232C448 289.344 401.344 336 344 336C286.656 336 240 289.344 240 232ZM289.872 301.24C304.816 312.952 323.584 320 344 320C392.52 320 432 280.52 432 232C432 183.48 392.52 144 344 144C295.48 144 256 183.48 256 232C256 237.824 256.6 243.504 257.68 249.008C263.104 236.088 266 222.136 266 208C266 203.584 269.576 200 274 200C278.424 200 282 203.584 282 208C282 229.008 276.56 249.736 266.288 267.936C265.856 268.696 265.296 269.32 264.688 269.88C268.232 277.272 272.76 284.088 278.136 290.168C295.016 265.992 304 237.784 304 208C304 197.776 302.92 187.576 300.8 177.68C299.872 173.352 302.624 169.104 306.944 168.176C311.296 167.248 315.52 170 316.448 174.328C318.808 185.328 320 196.656 320 208C320 241.896 309.528 273.96 289.872 301.24Z" fill="#FCD34D"/>
</svg>
